# File produced by Open Asset Import Library (http://www.assimp.sf.net)
# (assimp v3.1.193236683)

mtllib Wooden_Sign.mtl

# 84 vertex positions
v  -0.094869 1.9 -0.112151
v  -0.098337 1.85229 -0.037241
v  -0.098673 2.00812 -0.059276
v  -0.099994 2 -0.119169
v  0.112151 1.9 -0.094869
v  0.119169 2 -0.099994
v  0.094869 1.9 0.112151
v  0.10783 1.9 -0.043114
v  0.111957 2.01268 -0.035318
v  0.096452 2.00107 0.127288
v  -0.112151 1.9 0.094869
v  -0.122711 2.00107 0.108114
v  -0.1 0 0.1
v  -0.1 0 -0.05
v  0.1 0 -0.05
v  0.1 0 0.1
v  -0.102868 2.00832 -0.013718
v  -0.111179 1.748 0.095279
v  0.095279 1.748 0.111179
v  0.107204 1.748 -0.043665
v  0.111179 1.748 -0.095279
v  -0.095279 1.748 -0.111179
v  -0.09847 1.70411 -0.038262
v  0.113308 2.01366 -0.072708
v  -0.1 0 -0.1
v  0.1 0 -0.1
v  0.102034 0.602853 -0.081804
v  0.102506 0.608 -0.047796
v  0.193859 1.1552 -0.045895
v  0.104761 1.1552 -0.045813
v  0.107388 1.1552 -0.09688
v  0.196079 1.1552 -0.09688
v  0.104542 1.102 -0.046006
v  0.107144 1.0959 -0.095545
v  0.163772 1.78281 0.926849
v  0.18859 1.75268 0.111193
v  0.06389 1.78281 0.926849
v  -0.103888 0.608 0.098358
v  -0.099468 0.592733 -0.045917
v  -0.106591 1.102 0.09443
v  -0.099035 1.07433 -0.0426
v  -0.106929 1.1552 0.094398
v  -0.098989 1.12619 -0.042243
v  -0.098841 1.29102 -0.041107
v  -0.108469 1.32427 0.096424
v  -0.098358 0.608 -0.103888
v  -0.097024 1.102 -0.107047
v  -0.09688 1.1552 -0.107388
v  -0.096424 1.32427 -0.108469
v  0.108469 1.32427 -0.096424
v  0.098458 0.615855 0.120068
v  0.196555 1.74666 -0.043788
v  0.09863 1.10904 0.113875
v  0.096428 1.1552 0.113666
v  0.065033 1.33447 0.784202
v  0.096424 1.32427 0.108469
v  0.065489 1.15557 0.893906
v  0.191229 0.60565 -0.032204
v  0.190368 0.6024 -0.082673
v  0.194418 1.09545 -0.113248
v  0.194177 1.09873 -0.062275
v  0.194628 1.32389 -0.045294
v  0.197293 1.32332 -0.096395
v  0.200336 1.74466 -0.095177
v  0.198452 0.615402 0.119129
v  0.199087 1.10859 0.090578
v  0.190119 1.32561 0.108537
v  0.237538 1.15219 0.872804
v  0.137543 1.15264 0.873743
v  0.160973 1.71784 -0.879196
v  0.242634 1.71784 -0.879196
v  0.190729 1.1552 0.107477
v  0.164915 1.33447 0.784202
v  0.165371 1.15557 0.893906
v  0.238334 1.34106 -0.818959
v  0.156673 1.34106 -0.818959
v  0.169451 0.654213 -0.878806
v  0.069456 0.654666 -0.877867
v  0.074665 1.04537 -0.812671
v  0.17466 1.04492 -0.81361
v  0.136674 0.664591 0.926055
v  0.236668 0.664138 0.925116
v  0.236618 1.19072 -0.794923
v  0.154958 1.19072 -0.794923

# 135 UV coordinates
vt 0.256981 0.615422 0
vt 0.270922 0.594148 0
vt 0.28399 0.636759 0
vt 0.267939 0.642014 0
vt 0.201218 0.636382 0
vt 0.209349 0.663703 0
vt 0.368387 0.568212 0
vt 0.407637 0.546485 0
vt 0.421302 0.574501 0
vt 0.380439 0.594821 0
vt 0.311837 0.593717 0
vt 0.323556 0.621456 0
vt 0.132326 0.023893 0
vt 0.170683 0.006086 0
vt 0.194426 0.057228 0
vt 0.15607 0.075035 0
vt 0.21611 0.781135 0
vt 0.215746 0.734634 0
vt 0.275987 0.746117 0
vt 0.278585 0.781135 0
vt 0.294813 0.552779 0
vt 0.348669 0.528639 0
vt 0.387739 0.508179 0
vt 0.186115 0.596769 0
vt 0.240361 0.575103 0
vt 0.254685 0.555708 0
vt 0.400762 0.501359 0
vt 0.420703 0.539643 0
vt 0.213315 0.671585 0
vt 0.272248 0.658632 0
vt 0.183468 0.00015 0
vt 0.207212 0.051292 0
vt 0.435337 0.564105 0
vt 0.430088 0.571198 0
vt 0.291073 0.633281 0
vt 0.283408 0.701908 0
vt 0.223311 0.703442 0
vt 0.274129 0.207607 0
vt 0.266044 0.212962 0
vt 0.750357 0.049869 0
vt 0.751722 0.024654 0
vt 0.766104 0.026174 0
vt 0.764726 0.051161 0
vt 0.319753 0.345422 0
vt 0.332275 0.338947 0
vt 0.338444 0.354499 0
vt 0.324919 0.359511 0
vt 0.461703 0.204035 0
vt 0.692867 0.215113 0
vt 0.690678 0.241511 0
vt 0.459484 0.232235 0
vt 0.065214 0.113575 0
vt 0.104177 0.097143 0
vt 0.170377 0.255222 0
vt 0.13122 0.26709 0
vt 0.223788 0.384091 0
vt 0.184969 0.391935 0
vt 0.229632 0.397972 0
vt 0.190739 0.405401 0
vt 0.208974 0.448202 0
vt 0.248423 0.441914 0
vt 0.052226 0.119053 0
vt 0.11783 0.277417 0
vt 0.171224 0.40619 0
vt 0.176938 0.420064 0
vt 0.195037 0.464191 0
vt 0.00015 0.140668 0
vt 0.064803 0.297931 0
vt 0.117328 0.426695 0
vt 0.123689 0.442144 0
vt 0.14161 0.486242 0
vt 0.224039 0.234903 0
vt 0.736967 0.216806 0
vt 0.734557 0.24199 0
vt 0.278129 0.362968 0
vt 0.282688 0.37518 0
vt 0.500185 0.359111 0
vt 0.691766 0.361509 0
vt 0.690419 0.409394 0
vt 0.46928 0.409875 0
vt 0.301457 0.418927 0
vt 0.734801 0.438609 0
vt 0.748972 0.438928 0
vt 0.749747 0.577002 0
vt 0.735416 0.577433 0
vt 0.746394 0.097462 0
vt 0.760827 0.098431 0
vt 0.751563 0.217215 0
vt 0.692025 0.438431 0
vt 0.692036 0.577759 0
vt 0.703002 0.094523 0
vt 0.693125 0.410175 0
vt 0.74069 0.413683 0
vt 0.749142 0.242276 0
vt 0.731717 0.603003 0
vt 0.68662 0.606421 0
vt 0.470297 0.576741 0
vt 0.471279 0.60498 0
vt 0.750594 0.414225 0
vt 0.971257 0.249305 0
vt 0.973451 0.226272 0
vt 0.707138 0.046559 0
vt 0.706784 0.019861 0
vt 0.745768 0.601766 0
vt 0.475991 0.344455 0
vt 0.445087 0.395218 0
vt 0.964395 0.118591 0
vt 0.987404 0.116386 0
vt 0.996472 0.224072 0
vt 0.971516 0.458958 0
vt 0.99985 0.464451 0
vt 0.97729 0.576537 0
vt 0.948956 0.571044 0
vt 0.44211 0.578109 0
vt 0.435636 0.439744 0
vt 0.463823 0.438376 0
vt 0.950282 0.599606 0
vt 0.691918 0.745688 0
vt 0.463515 0.743458 0
vt 0.960759 0.075671 0
vt 0.974505 0.430995 0
vt 0.487018 0.00015 0
vt 0.485612 0.028339 0
vt 0.954904 0.355934 0
vt 0.750224 0.362064 0
vt 0.512373 0.08137 0
vt 0.962289 0.052531 0
vt 0.977765 0.708786 0
vt 0.75326 0.741754 0
vt 0.464884 0.410177 0
vt 0.948379 0.39848 0
vt 0.750655 0.40986 0
vt 0.98376 0.073457 0
vt 0.435636 0.193342 0
vt 0.486306 0.070676 0

# 84 vertex normals
vn -0.240789 -0.0289467 -0.970146
vn -0.984241 0.144715 -0.101618
vn -0.172732 0.62751 0.759206
vn -0.173261 0.423088 -0.889369
vn 0.318629 -0.0283642 -0.947455
vn 0.224704 0.19205 -0.955314
vn 0.538902 -0.052319 0.840742
vn 0.978577 0.195015 -0.0660053
vn 0.315417 0.826711 -0.465898
vn 0.388123 0.627134 0.675325
vn -0.586431 -0.0671861 0.807208
vn -0.558725 0.627961 0.541749
vn -0.635844 -0.184734 0.749383
vn -0.944666 -0.327324 -0.0215707
vn 0.940379 -0.340121 -0.00230396
vn 0.621459 -0.203713 0.756499
vn -0.417291 0.621698 -0.662842
vn -0.603981 0.00151191 0.796997
vn -0.920778 0.263964 0.28721
vn 0.864332 0.498952 0.0630633
vn -0.867905 0.235092 -0.437575
vn -0.263512 0.000705808 -0.964656
vn -0.996953 0.00176037 -0.0779788
vn 0.146652 0.627297 0.764847
vn -0.275628 -0.0837117 -0.957612
vn 0.338668 -0.05055 -0.939547
vn -0.843331 -0.188789 -0.503142
vn 0.991033 -0.130539 0.0285258
vn 0.882591 -0.469476 0.0250251
vn 0.491003 -0.870783 0.0255485
vn -0.802338 -0.434105 -0.409642
vn 0.860171 -0.509399 0.0248647
vn 0.530604 0.847376 -0.0203188
vn -0.907634 0.222887 -0.355698
vn 0.974515 0.174235 0.141289
vn 0.978644 0.203995 0.0253514
vn -0.969685 0.228113 0.0876133
vn -0.633003 0.00242746 0.774145
vn -0.999395 0.00139234 -0.0347402
vn -0.612637 0.00578206 0.790344
vn -0.998877 0.00163416 -0.0473527
vn -0.604257 -0.0112705 0.79671
vn -0.99844 0.00138885 -0.0558233
vn -0.997527 0.0015095 -0.0702667
vn -0.610008 -0.00403048 0.792385
vn -0.189063 0.0137882 -0.981868
vn -0.249353 -0.0244748 -0.968103
vn -0.254506 -0.0095185 -0.967024
vn -0.2733 -0.00301252 -0.961924
vn -0.938118 0.00547548 -0.346272
vn -0.765624 -0.224654 0.602785
vn 0.975622 0.214317 0.0472214
vn -0.924522 0.22735 0.305893
vn -0.809093 -0.537537 0.237533
vn -0.995243 -0.00752385 0.097133
vn -0.972066 0.00583059 0.234635
vn -0.887727 -0.453602 0.078655
vn 0.98281 -0.1833 -0.022046
vn 0.973956 -0.223576 -0.0377342
vn 0.981553 0.187188 -0.0389054
vn 0.980942 0.191169 -0.0347497
vn 0.99924 -0.00295681 0.0388664
vn 0.998406 -0.00408884 0.0562942
vn 0.981721 0.184225 0.0477939
vn 0.979665 -0.198079 -0.031969
vn 0.978911 0.19629 -0.0566002
vn 0.999218 0.00863371 0.0385863
vn 0.977704 0.199584 0.0652855
vn -0.96647 0.205338 0.154181
vn -0.966513 0.193433 -0.168629
vn 0.97558 0.210349 -0.0632143
vn 0.867636 -0.496424 0.0277548
vn 0.987127 -0.00577117 0.159837
vn 0.8723 -0.461901 0.160438
vn 0.998132 -0.020587 -0.0575158
vn -0.98564 -0.0156328 -0.168132
vn 0.959264 -0.23208 -0.161096
vn -0.962504 -0.247839 -0.11028
vn -0.956592 0.270072 -0.109509
vn 0.960886 0.225551 -0.160699
vn -0.968038 -0.177831 0.176857
vn 0.976089 -0.198394 0.0888292
vn 0.866765 -0.49287 -0.0761405
vn -0.86423 -0.470236 -0.178843

# Mesh 'Cube_Cube.001_Cube_Cube.001' with 164 faces
g Cube_Cube.001_Cube_Cube.001
usemtl DefaultMaterial
f  1/1/1 2/2/2 3/3/3
f  3/3/3 4/4/4 1/1/1
f  5/5/5 1/1/1 4/4/4
f  4/4/4 6/6/6 5/5/5
f  7/7/7 8/8/8 9/9/9
f  9/9/9 10/10/10 7/7/7
f  11/11/11 7/7/7 10/10/10
f  10/10/10 12/12/12 11/11/11
f  13/13/13 14/14/14 15/15/15
f  15/15/15 16/16/16 13/13/13
f  10/17/10 9/18/9 17/19/17
f  17/19/17 12/20/12 10/17/10
f  18/21/18 19/22/19 7/7/7
f  7/7/7 11/11/11 18/21/18
f  19/22/19 20/23/20 8/8/8
f  8/8/8 7/7/7 19/22/19
f  21/24/21 22/25/22 1/1/1
f  1/1/1 5/5/5 21/24/21
f  22/25/22 23/26/23 2/2/2
f  2/2/2 1/1/1 22/25/22
f  23/26/23 18/21/18 11/11/11
f  11/11/11 2/2/2 23/26/23
f  20/23/20 21/27/21 5/28/5
f  5/28/5 8/8/8 20/23/20
f  24/29/24 6/6/6 4/4/4
f  4/4/4 3/30/3 24/29/24
f  14/14/14 25/31/25 26/32/26
f  26/32/26 15/15/15 14/14/14
f  8/8/8 5/28/5 6/33/6
f  6/33/6 24/34/24 8/8/8
f  2/2/2 11/11/11 12/12/12
f  12/12/12 17/35/17 2/2/2
f  3/30/3 2/36/2 8/37/8
f  8/37/8 24/29/24 3/30/3
f  17/19/17 9/18/9 8/37/8
f  8/37/8 2/36/2 17/19/17
f  15/15/15 26/32/26 27/38/27
f  27/38/27 28/39/28 15/15/15
f  29/40/29 30/41/30 31/42/31
f  31/42/31 32/43/32 29/40/29
f  33/44/33 34/45/34 31/46/31
f  31/46/31 30/47/30 33/44/33
f  35/48/35 36/49/36 19/50/19
f  19/50/19 37/51/37 35/48/35
f  14/52/14 13/53/13 38/54/38
f  38/54/38 39/55/39 14/52/14
f  39/55/39 38/54/38 40/56/40
f  40/56/40 41/57/41 39/55/39
f  41/57/41 40/56/40 42/58/42
f  42/58/42 43/59/43 41/57/41
f  44/60/44 45/61/45 18/21/18
f  18/21/18 23/26/23 44/60/44
f  25/62/25 14/52/14 39/55/39
f  39/55/39 46/63/46 25/62/25
f  46/63/46 39/55/39 41/57/41
f  41/57/41 47/64/47 46/63/46
f  47/64/47 41/57/41 43/59/43
f  43/59/43 48/65/48 47/64/47
f  49/66/49 44/60/44 23/26/23
f  23/26/23 22/25/22 49/66/49
f  26/67/26 25/62/25 46/63/46
f  46/63/46 27/68/27 26/67/26
f  27/68/27 46/63/46 47/64/47
f  47/64/47 34/69/34 27/68/27
f  34/69/34 47/64/47 48/65/48
f  48/65/48 31/70/31 34/69/34
f  50/71/50 49/66/49 22/25/22
f  22/25/22 21/24/21 50/71/50
f  16/16/16 15/15/15 28/39/28
f  28/39/28 51/72/51 16/16/16
f  52/73/52 20/74/20 19/50/19
f  19/50/19 36/49/36 52/73/52
f  53/75/53 33/44/33 30/47/30
f  30/47/30 54/76/54 53/75/53
f  55/77/55 56/78/56 54/79/54
f  54/79/54 57/80/57 55/77/55
f  13/53/13 16/16/16 51/72/51
f  51/72/51 38/54/38 13/53/13
f  38/54/38 51/72/51 53/75/53
f  53/75/53 40/56/40 38/54/38
f  40/56/40 53/75/53 54/76/54
f  54/76/54 42/58/42 40/56/40
f  45/61/45 56/81/56 19/22/19
f  19/22/19 18/21/18 45/61/45
f  58/82/58 59/83/59 60/84/60
f  60/84/60 61/85/61 58/82/58
f  62/86/62 63/87/63 64/88/64
f  64/88/64 52/73/52 62/86/62
f  65/89/65 58/82/58 61/85/61
f  61/85/61 66/90/66 65/89/65
f  67/91/67 62/86/62 52/73/52
f  52/73/52 36/49/36 67/91/67
f  65/89/65 51/92/51 28/93/28
f  28/93/28 58/82/58 65/89/65
f  64/88/64 21/94/21 20/74/20
f  20/74/20 52/73/52 64/88/64
f  61/85/61 33/95/33 53/96/53
f  53/96/53 66/90/66 61/85/61
f  68/97/68 66/90/66 53/96/53
f  53/96/53 69/98/69 68/97/68
f  58/82/58 28/93/28 27/99/27
f  27/99/27 59/83/59 58/82/58
f  70/100/70 21/94/21 64/88/64
f  64/88/64 71/101/71 70/100/70
f  72/102/72 54/103/54 30/41/30
f  30/41/30 29/40/29 72/102/72
f  60/84/60 34/104/34 33/95/33
f  33/95/33 61/85/61 60/84/60
f  73/105/73 55/77/55 57/80/57
f  57/80/57 74/106/74 73/105/73
f  75/107/75 76/108/76 70/109/70
f  70/109/70 71/101/71 75/107/75
f  77/110/77 78/111/78 79/112/79
f  79/112/79 80/113/80 77/110/77
f  68/97/68 69/114/69 81/115/81
f  81/115/81 82/116/82 68/97/68
f  79/117/79 34/104/34 60/84/60
f  60/84/60 80/113/80 79/117/79
f  69/98/69 53/96/53 51/118/51
f  51/118/51 81/119/81 69/98/69
f  75/107/75 63/87/63 32/43/32
f  32/43/32 83/120/83 75/107/75
f  77/110/77 59/83/59 27/99/27
f  27/99/27 78/121/78 77/110/77
f  80/113/80 60/84/60 59/83/59
f  59/83/59 77/110/77 80/113/80
f  57/122/57 54/103/54 72/102/72
f  72/102/72 74/123/74 57/122/57
f  76/124/76 50/125/50 21/94/21
f  21/94/21 70/100/70 76/124/76
f  73/126/73 67/91/67 36/49/36
f  36/49/36 35/48/35 73/126/73
f  83/120/83 32/43/32 31/42/31
f  31/42/31 84/127/84 83/120/83
f  82/116/82 65/89/65 66/90/66
f  66/90/66 68/97/68 82/116/82
f  78/128/78 27/129/27 34/104/34
f  34/104/34 79/117/79 78/128/78
f  81/130/81 51/92/51 65/89/65
f  65/89/65 82/116/82 81/130/81
f  74/123/74 72/102/72 67/91/67
f  67/91/67 73/126/73 74/123/74
f  84/131/84 31/132/31 50/125/50
f  50/125/50 76/124/76 84/131/84
f  71/101/71 64/88/64 63/87/63
f  63/87/63 75/107/75 71/101/71
f  83/120/83 84/133/84 76/108/76
f  76/108/76 75/107/75 83/120/83
f  35/48/35 37/134/37 55/135/55
f  55/135/55 73/126/73 35/48/35
f  72/102/72 29/40/29 62/86/62
f  62/86/62 67/91/67 72/102/72
f  29/40/29 32/43/32 63/87/63
f  63/87/63 62/86/62 29/40/29
f  42/58/42 54/76/54 56/81/56
f  56/81/56 45/61/45 42/58/42
f  37/51/37 19/50/19 56/78/56
f  56/78/56 55/77/55 37/51/37
f  31/70/31 48/65/48 49/66/49
f  49/66/49 50/71/50 31/70/31
f  48/65/48 43/59/43 44/60/44
f  44/60/44 49/66/49 48/65/48
f  43/59/43 42/58/42 45/61/45
f  45/61/45 44/60/44 43/59/43

