# File produced by Open Asset Import Library (http://www.assimp.sf.net)
# (assimp v3.1.193236683)

mtllib Target.mtl

# 132 vertex positions
v  0.866025 -0.5 -0.285879
v  1 1.13687e-13 -0.285879
v  4.99986 1.13687e-13 -0.499986
v  4.33 -2.49993 -0.499986
v  1.99858 -3.46164 0.304665
v  2.05018 -3.55102 0.3375
v  3.55102 -2.05018 0.3375
v  3.46164 -1.99858 0.304665
v  -1.50037 2.59871 0.192165
v  -1.44837 2.50865 0.225
v  0 2.89674 0.225
v  0 3.00073 0.192165
v  -0.500001 0.866025 -0.285879
v  -0.866026 0.499999 -0.285879
v  -4.33 2.49992 -0.499986
v  -2.49993 4.33 -0.499986
v  0 -1 -0.285879
v  0.5 -0.866025 -0.285879
v  2.49993 -4.33 -0.499986
v  1e-06 -4.99985 -0.499986
v  2.59871 1.50037 0.192165
v  2.50865 1.44837 0.225
v  2.89674 1.13687e-13 0.225
v  3.00073 1.13687e-13 0.192165
v  -1.7338 1.00101 0.117165
v  -1.81957 1.05053 0.15
v  -2.10105 -1e-06 0.15
v  -2.00202 -1e-06 0.117165
v  -0.866026 0.499999 0.067165
v  -0.782063 0.451524 0.1
v  -0.451525 0.782062 0.1
v  -0.500001 0.866025 0.067165
v  -1 1.13687e-13 0.067165
v  -0.866025 -0.5 -0.285879
v  -0.5 -0.866026 -0.285879
v  -2.49993 -4.33 -0.499986
v  -4.33 -2.49993 -0.499986
v  -0.782062 -0.451524 0.1
v  -0.451524 -0.782063 0.1
v  0 -0.903048 0.1
v  -0.903048 1.13687e-13 0.1
v  0.866025 0.5 -0.285879
v  4.33 2.49993 -0.499986
v  -3.99715 -1e-06 0.304665
v  -4.10037 -1e-06 0.3375
v  -3.55102 -2.05018 0.3375
v  -3.46164 -1.99858 0.304665
v  0.451524 -0.782063 0.1
v  0.782063 -0.451524 0.1
v  0.903048 1.13687e-13 0.1
v  0 0.903048 0.1
v  0.782063 0.451524 0.1
v  0.451524 0.782063 0.1
v  0 1 -0.285879
v  0.5 0.866025 -0.285879
v  -1 1.13687e-13 -0.285879
v  2.00202 1.13687e-13 0.117165
v  1 1.13687e-13 0.067165
v  0.866025 -0.5 0.067165
v  1.7338 -1.00101 0.117165
v  1.00101 1.7338 0.117165
v  0.5 0.866025 0.067165
v  0.866025 0.5 0.067165
v  1.7338 1.00101 0.117165
v  1.00101 -1.7338 0.117165
v  0.5 -0.866025 0.067165
v  0 -1 0.067165
v  0 -2.00202 0.117165
v  -2.89674 -1e-06 0.225
v  -2.50865 1.44837 0.225
v  2.50865 -1.44837 0.225
v  1.81957 -1.05053 0.15
v  1.05053 -1.81957 0.15
v  1.44837 -2.50865 0.225
v  -1.00101 1.7338 0.117165
v  0 1 0.067165
v  0 2.00202 0.117165
v  -1.00101 -1.7338 0.117165
v  -0.5 -0.866026 0.067165
v  -0.866025 -0.5 0.067165
v  -1.7338 -1.00101 0.117165
v  -1.05053 1.81957 0.15
v  0 2.10105 0.15
v  0 -2.89674 0.225
v  0 -2.10105 0.15
v  -1.05053 -1.81957 0.15
v  -1.44837 -2.50865 0.225
v  1.44837 2.50865 0.225
v  1.05053 1.81957 0.15
v  1.81957 1.05053 0.15
v  0 4.99986 -0.499986
v  2.49993 4.33 -0.499986
v  -4.99985 -2e-06 -0.499986
v  1e-06 -3.00073 0.192165
v  -1.50036 -2.59871 0.192165
v  4.10037 1.13687e-13 0.3375
v  3.99715 1.13687e-13 0.304665
v  2.59871 -1.50037 0.192165
v  1.50037 -2.59871 0.192165
v  -2.59871 1.50036 0.192165
v  1.50037 2.59871 0.192165
v  1e-06 -3.99715 0.304665
v  -1.99858 -3.46164 0.304665
v  -1.81957 -1.05053 0.15
v  3.46164 1.99858 0.304665
v  -2.05018 -3.55102 0.3375
v  2.10105 1.13687e-13 0.15
v  -2.50865 -1.44837 0.225
v  4.33 2.49993 0.499986
v  3.55102 2.05018 0.3375
v  4.99986 1.13687e-13 0.499986
v  -3.46164 1.99857 0.304665
v  -3.55102 2.05018 0.3375
v  1e-06 -4.10037 0.3375
v  -4.99985 -2e-06 0.499986
v  -4.33 2.49992 0.499986
v  4.33 -2.49993 0.499986
v  2.49993 -4.33 0.499986
v  -2.59871 -1.50037 0.192165
v  -2.49993 4.33 0.499986
v  -2.05019 3.55102 0.3375
v  0 4.10037 0.3375
v  0 4.99986 0.499986
v  1e-06 -4.99985 0.499986
v  -2.49993 -4.33 0.499986
v  2.49993 4.33 0.499986
v  2.05018 3.55102 0.3375
v  1.99858 3.46164 0.304665
v  0 3.99715 0.304665
v  -3.00073 -1e-06 0.192165
v  -1.99858 3.46164 0.304665
v  -4.33 -2.49993 0.499986

# 284 UV coordinates
vt 0.135659 0.377157 0
vt 0.141967 0.366211 0
vt 0.236405 0.391477 0
vt 0.204865 0.446204 0
vt 0.428314 0.046106 0
vt 0.430501 0.044621 0
vt 0.448133 0.093325 0
vt 0.445503 0.093584 0
vt 0.445442 0.369649 0
vt 0.447393 0.367838 0
vt 0.478139 0.387687 0
vt 0.477292 0.39021 0
vt 0.112094 0.33627 0
vt 0.101134 0.342553 0
vt 0.032246 0.273189 0
vt 0.087045 0.241774 0
vt 0.112094 0.383519 0
vt 0.124728 0.38349 0
vt 0.15021 0.47787 0
vt 0.087045 0.478016 0
vt 0.549645 0.377425 0
vt 0.547985 0.375345 0
vt 0.570065 0.346162 0
vt 0.572519 0.347194 0
vt 0.277362 0.536064 0
vt 0.276736 0.538532 0
vt 0.253397 0.52589 0
vt 0.255122 0.524018 0
vt 0.353539 0.478149 0
vt 0.355067 0.476173 0
vt 0.365527 0.480726 0
vt 0.365122 0.483191 0
vt 0.461049 0.012984 0
vt 0.478415 0.030246 0
vt 0.472127 0.041204 0
vt 0.448461 0.034922 0
vt 0.094718 0.366103 0
vt 0.100976 0.377077 0
vt 0.031453 0.445806 0
vt 0.000164 0.390935 0
vt 0.454166 0.148241 0
vt 0.464046 0.142537 0
vt 0.475454 0.142537 0
vt 0.448461 0.158122 0
vt 0.141967 0.353578 0
vt 0.236405 0.328312 0
vt 0.244415 0.078355 0
vt 0.241853 0.077703 0
vt 0.266618 0.032201 0
vt 0.268556 0.033998 0
vt 0.485334 0.148241 0
vt 0.491039 0.158122 0
vt 0.491039 0.16953 0
vt 0.454166 0.17941 0
vt 0.448461 0.16953 0
vt 0.464046 0.185115 0
vt 0.485334 0.17941 0
vt 0.475454 0.185115 0
vt 0.49561 0.124952 0
vt 0.478352 0.09506 0
vt 0.489293 0.101377 0
vt 0.49561 0.112318 0
vt 0.448461 0.112318 0
vt 0.454778 0.101377 0
vt 0.465719 0.095061 0
vt 0.465719 0.142209 0
vt 0.454778 0.135892 0
vt 0.448461 0.124952 0
vt 0.489293 0.135892 0
vt 0.478352 0.142209 0
vt 0.530304 0.082101 0
vt 0.513007 0.06477 0
vt 0.519339 0.053837 0
vt 0.542979 0.060214 0
vt 0.483099 0.094732 0
vt 0.489429 0.071079 0
vt 0.502062 0.071079 0
vt 0.508392 0.094732 0
vt 0.54303 0.034922 0
vt 0.519364 0.041204 0
vt 0.513076 0.030246 0
vt 0.530442 0.012984 0
vt 0.446015 0.512615 0
vt 0.459758 0.498774 0
vt 0.482777 0.511991 0
vt 0.477751 0.530838 0
vt 0.515318 0.393878 0
vt 0.510025 0.412652 0
vt 0.483484 0.412275 0
vt 0.478726 0.393359 0
vt 0.448512 0.060214 0
vt 0.472153 0.053837 0
vt 0.478484 0.06477 0
vt 0.461187 0.082101 0
vt 0.508203 0.000164 0
vt 0.501968 0.023843 0
vt 0.489335 0.023893 0
vt 0.482911 0.000265 0
vt 0.514346 0.530838 0
vt 0.50932 0.511991 0
vt 0.532339 0.498774 0
vt 0.546082 0.512615 0
vt 0.445305 0.41255 0
vt 0.459243 0.426195 0
vt 0.446189 0.449307 0
vt 0.427307 0.444414 0
vt 0.56453 0.481009 0
vt 0.545719 0.475849 0
vt 0.545907 0.449306 0
vt 0.564789 0.444414 0
vt 0.135659 0.342632 0
vt 0.124728 0.336299 0
vt 0.150211 0.241919 0
vt 0.204865 0.273585 0
vt 0.094776 0.35347 0
vt 0.000454 0.32777 0
vt 0.388277 0.475196 0
vt 0.386437 0.473506 0
vt 0.39186 0.463469 0
vt 0.394282 0.464081 0
vt 0.338712 0.502833 0
vt 0.341121 0.503658 0
vt 0.32662 0.52589 0
vt 0.324895 0.524018 0
vt 0.515097 0.241774 0
vt 0.514634 0.244395 0
vt 0.478138 0.247118 0
vt 0.477291 0.244595 0
vt 0.111877 0.383461 0
vt 0.085961 0.477723 0
vt 0.285633 0.434875 0
vt 0.285416 0.432338 0
vt 0.311607 0.436647 0
vt 0.310589 0.438981 0
vt 0.37771 0.433408 0
vt 0.376895 0.435769 0
vt 0.365527 0.434803 0
vt 0.365122 0.432338 0
vt 0.440338 0.144533 0
vt 0.437904 0.143503 0
vt 0.402325 0.268783 0
vt 0.384758 0.285823 0
vt 0.352253 0.266316 0
vt 0.359026 0.242798 0
vt 0.427307 0.336357 0
vt 0.429887 0.3357 0
vt 0.515097 0.393031 0
vt 0.514634 0.39041 0
vt 0.314351 0.265546 0
vt 0.308538 0.241774 0
vt 0.304687 0.242799 0
vt 0.31146 0.266316 0
vt 0.278955 0.285823 0
vt 0.261388 0.268784 0
vt 0.238896 0.503658 0
vt 0.241305 0.502833 0
vt 0.345744 0.468207 0
vt 0.348028 0.467195 0
vt 0.426979 0.312853 0
vt 0.403267 0.318907 0
vt 0.426467 0.363349 0
vt 0.402882 0.356815 0
vt 0.310121 0.004073 0
vt 0.310964 0.006579 0
vt 0.565153 0.274094 0
vt 0.562955 0.275595 0
vt 0.535497 0.251405 0
vt 0.536709 0.249035 0
vt 0.332584 0.452911 0
vt 0.330577 0.454478 0
vt 0.532854 0.426195 0
vt 0.546792 0.41255 0
vt 0.446378 0.475849 0
vt 0.427567 0.481009 0
vt 0.46028 0.425165 0
vt 0.446734 0.41113 0
vt 0.530165 0.012708 0
vt 0.512938 0.030108 0
vt 0.207397 0.210331 0
vt 0.191826 0.194356 0
vt 0.218489 0.149943 0
vt 0.239909 0.156175 0
vt 0.239245 0.477625 0
vt 0.236734 0.477202 0
vt 0.247433 0.452911 0
vt 0.249439 0.454478 0
vt 0.244415 0.128856 0
vt 0.241853 0.129508 0
vt 0.39052 0.012621 0
vt 0.39173 0.010271 0
vt 0.000164 0.09303 0
vt 0.021875 0.098158 0
vt 0.0232 0.149943 0
vt 0.00178 0.156175 0
vt 0.241525 0.09303 0
vt 0.219814 0.098158 0
vt 0.195459 0.052439 0
vt 0.211827 0.037282 0
vt 0.447392 0.266967 0
vt 0.445441 0.265156 0
vt 0.302655 0.536064 0
vt 0.303281 0.538532 0
vt 0.034292 0.210331 0
vt 0.049863 0.194356 0
vt 0.094944 0.219873 0
vt 0.089262 0.241446 0
vt 0.146251 0.000164 0
vt 0.14168 0.021999 0
vt 0.089946 0.024649 0
vt 0.083168 0.003396 0
vt 0.152427 0.241446 0
vt 0.146745 0.219873 0
vt 0.361318 0.204441 0
vt 0.361774 0.207045 0
vt 0.31012 0.203136 0
vt 0.310963 0.200631 0
vt 0.260446 0.318907 0
vt 0.236734 0.312853 0
vt 0.260831 0.356815 0
vt 0.237246 0.363349 0
vt 0.37771 0.482121 0
vt 0.376895 0.47976 0
vt 0.266617 0.175009 0
vt 0.268556 0.173212 0
vt 0.388277 0.440333 0
vt 0.386437 0.442023 0
vt 0.400923 0.406909 0
vt 0.383706 0.389516 0
vt 0.26279 0.406909 0
vt 0.280007 0.389516 0
vt 0.312902 0.40836 0
vt 0.306608 0.43201 0
vt 0.409011 0.185786 0
vt 0.407365 0.183718 0
vt 0.427307 0.298447 0
vt 0.429887 0.299104 0
vt 0.350811 0.40836 0
vt 0.357105 0.43201 0
vt 0.68401 0.231778 0
vt 0.620845 0.231778 0
vt 0.620845 0.207373 0
vt 0.68401 0.207373 0
vt 0.747175 0.231778 0
vt 0.747175 0.207373 0
vt 0.810341 0.231778 0
vt 0.810341 0.207373 0
vt 0.873506 0.231778 0
vt 0.873506 0.207373 0
vt 0.936671 0.231778 0
vt 0.936671 0.207373 0
vt 0.999836 0.231778 0
vt 0.999836 0.207373 0
vt 0.305018 0.231778 0
vt 0.241853 0.231778 0
vt 0.241853 0.207373 0
vt 0.305018 0.207373 0
vt 0.368184 0.231778 0
vt 0.368184 0.207373 0
vt 0.431349 0.231778 0
vt 0.431349 0.207373 0
vt 0.494514 0.231778 0
vt 0.494514 0.207373 0
vt 0.557679 0.231778 0
vt 0.557679 0.207373 0
vt 0.04623 0.052439 0
vt 0.029862 0.037282 0
vt 0.340772 0.477625 0
vt 0.343283 0.477203 0
vt 0.261733 0.443151 0
vt 0.260334 0.441023 0
vt 0.151742 0.024649 0
vt 0.158521 0.003395 0
vt 0.575496 0.309973 0
vt 0.578144 0.309706 0
vt 0.39186 0.45206 0
vt 0.394282 0.451448 0
vt 0.347654 0.443786 0
vt 0.349753 0.445141 0
vt 0.346102 0.45595 0
vt 0.343611 0.455755 0
vt 0.3569 0.435177 0
vt 0.358102 0.437367 0
vt 0.361777 0.000164 0
vt 0.36132 0.002768 0

# 132 vertex normals
vn -0.0505005 0.0182531 -0.998557
vn -0.0442544 -0.0079052 -0.998989
vn 0.192788 0 -0.98124
vn 0.166959 -0.0963938 -0.981241
vn -0.0655136 0.113473 0.991379
vn -0.0987071 0.162244 0.981801
vn -0.166605 0.091154 0.981801
vn -0.113473 0.0655136 0.991379
vn 0.0421415 -0.0651075 0.996988
vn 0.022882 -0.0399827 0.998938
vn -0.000174956 -0.046067 0.998938
vn 0.00394188 -0.0774554 0.996988
vn 0.0346082 -0.0410579 -0.998557
vn 0.0505005 -0.018253 -0.998557
vn -0.166959 0.0963937 -0.981241
vn -0.0963939 0.166959 -0.98124
vn -0.00790519 0.0442544 -0.998989
vn -0.0346082 0.0410579 -0.998557
vn 0.0963938 -0.166959 -0.981241
vn 0 -0.192788 -0.98124
vn -0.0651075 -0.0421415 0.996988
vn -0.0399827 -0.0228819 0.998938
vn -0.046067 0.000174979 0.998938
vn -0.0774554 -0.00394182 0.996988
vn 0.0649696 -0.0375102 0.997182
vn 0.101919 -0.0544302 0.993303
vn 0.115479 0.0038213 0.993303
vn 0.0750204 3.55456e-08 0.997182
vn 0.0249231 -0.00954988 0.999644
vn -0.133735 0.0747969 0.98819
vn -0.0407943 0.0684816 0.996818
vn 0.016809 -0.0207319 0.999644
vn 0.0263589 0.00419108 0.999644
vn 0.0410579 0.0346082 -0.998557
vn 0.0182531 0.0505005 -0.998557
vn -0.0963938 -0.166959 -0.981241
vn -0.166959 -0.0963939 -0.98124
vn -0.0684818 -0.0407943 0.996818
vn -0.0747967 -0.133735 0.98819
vn 0.000183813 -0.0134644 0.999909
vn -0.0134644 -0.000183814 0.999909
vn -0.0410579 -0.0346082 -0.998557
vn 0.166959 0.0963938 -0.98124
vn 0.131027 3.08506e-08 0.991379
vn 0.189861 0.00436094 0.981801
vn 0.162244 0.0987072 0.981801
vn 0.113473 0.0655136 0.991379
vn 0.0407942 -0.0684817 0.996818
vn 0.133735 -0.0747972 0.98819
vn 0.0134644 0.000183813 0.999909
vn -0.000183814 0.0134644 0.999909
vn 0.0684817 0.0407942 0.996818
vn 0.0747972 0.133735 0.98819
vn 0.00790522 -0.0442544 -0.998989
vn -0.0182531 -0.0505005 -0.998557
vn 0.0442544 0.00790521 -0.998989
vn -0.0750205 0 0.997182
vn -0.0263589 -0.00419104 0.999644
vn -0.024923 0.00954986 0.999644
vn -0.0649696 0.0375102 0.997182
vn -0.0375102 -0.0649696 0.997182
vn -0.00954986 -0.024923 0.999644
vn -0.020732 -0.016809 0.999644
vn -0.0649696 -0.0375102 0.997182
vn -0.0375102 0.0649696 0.997182
vn -0.016809 0.020732 0.999644
vn -0.00419105 0.0263589 0.999644
vn -2.63301e-09 0.0750205 0.997182
vn 0.0460671 -0.000174974 0.998938
vn 0.0398077 -0.023185 0.998938
vn -0.0398077 0.0231851 0.998938
vn -0.101919 0.0544303 0.993303
vn -0.0610489 0.0980973 0.993303
vn -0.0228819 0.0399827 0.998938
vn 0.0375102 -0.0649696 0.997182
vn 0.00419106 -0.0263589 0.999644
vn 3.55456e-08 -0.0750204 0.997182
vn 0.0375102 0.0649696 0.997182
vn 0.0095499 0.024923 0.999644
vn 0.0207319 0.016809 0.999644
vn 0.0649696 0.0375102 0.997182
vn 0.0610489 -0.0980973 0.993303
vn 0.00382133 -0.115479 0.993303
vn 0.000174967 0.046067 0.998938
vn -0.00382126 0.115479 0.993303
vn 0.0544302 0.101919 0.993303
vn 0.0231851 0.0398077 0.998938
vn -0.0231851 -0.0398077 0.998938
vn -0.0544303 -0.101919 0.993303
vn -0.0980973 -0.0610489 0.993303
vn -7.76779e-08 0.192788 -0.981241
vn 0.0963939 0.166959 -0.981241
vn -0.192788 -7.99626e-08 -0.98124
vn -0.00394183 0.0774555 0.996988
vn 0.035314 0.0690493 0.996988
vn -0.189861 -0.00436092 0.981801
vn -0.131027 9.84592e-10 0.991379
vn -0.0690493 0.035314 0.996988
vn -0.0421414 0.0651075 0.996988
vn 0.0690494 -0.035314 0.996988
vn -0.035314 -0.0690493 0.996988
vn -6.56395e-10 0.131027 0.991379
vn 0.0655135 0.113473 0.991379
vn 0.0980972 0.0610489 0.993303
vn -0.113473 -0.0655136 0.991379
vn 0.0911539 0.166605 0.981801
vn -0.115479 -0.00382129 0.993303
vn 0.0399827 0.022882 0.998938
vn 0.590138 0.340716 0.731881
vn -0.162244 -0.0987071 0.981801
vn 0.681433 0 0.731881
vn 0.113473 -0.0655136 0.991379
vn 0.166605 -0.0911537 0.981801
vn -0.00436094 0.189861 0.981801
vn -0.681433 -2.78478e-07 0.731881
vn -0.590138 0.340716 0.731881
vn 0.590138 -0.340716 0.731881
vn 0.340716 -0.590138 0.731881
vn 0.0651075 0.0421415 0.996988
vn -0.340717 0.590137 0.731881
vn 0.0987072 -0.162244 0.981801
vn 0.004361 -0.189861 0.981801
vn -2.76583e-07 0.681432 0.731881
vn 0 -0.681433 0.731881
vn -0.340716 -0.590138 0.731881
vn 0.340716 0.590138 0.731881
vn -0.0911538 -0.166605 0.981801
vn -0.0655136 -0.113473 0.991379
vn 3.01942e-08 -0.131027 0.991379
vn 0.0774554 0.0039419 0.996988
vn 0.0655136 -0.113473 0.991379
vn -0.590138 -0.340716 0.731881

# Mesh 'Cylinder_Cylinder.001_Cylinder_Cylinder.001' with 260 faces
g Cylinder_Cylinder.001_Cylinder_Cylinder.001
usemtl DefaultMaterial
f  1/1/1 2/2/2 3/3/3
f  3/3/3 4/4/4 1/1/1
f  5/5/5 6/6/6 7/7/7
f  7/7/7 8/8/8 5/5/5
f  9/9/9 10/10/10 11/11/11
f  11/11/11 12/12/12 9/9/9
f  13/13/13 14/14/14 15/15/15
f  15/15/15 16/16/16 13/13/13
f  17/17/17 18/18/18 19/19/19
f  19/19/19 20/20/20 17/17/17
f  21/21/21 22/22/22 23/23/23
f  23/23/23 24/24/24 21/21/21
f  25/25/25 26/26/26 27/27/27
f  27/27/27 28/28/28 25/25/25
f  29/29/29 30/30/30 31/31/31
f  31/31/31 32/32/32 29/29/29
f  28/33/28 33/34/33 29/35/29
f  29/35/29 25/36/25 28/33/28
f  34/37/34 35/38/35 36/39/36
f  36/39/36 37/40/37 34/37/34
f  38/41/38 39/42/39 40/43/40
f  40/43/40 41/44/41 38/41/38
f  2/2/2 42/45/42 43/46/43
f  43/46/43 3/3/3 2/2/2
f  44/47/44 45/48/45 46/49/46
f  46/49/46 47/50/47 44/47/44
f  48/51/48 49/52/49 50/53/50
f  50/53/50 40/43/40 48/51/48
f  31/54/31 30/55/30 41/44/41
f  41/44/41 51/56/51 31/54/31
f  52/57/52 53/58/53 51/56/51
f  51/56/51 50/53/50 52/57/52
f  2/59/2 54/60/54 55/61/55
f  55/61/55 42/62/42 2/59/2
f  54/60/54 56/63/56 14/64/14
f  14/64/14 13/65/13 54/60/54
f  56/63/56 17/66/17 35/67/35
f  35/67/35 34/68/34 56/63/56
f  17/66/17 2/59/2 1/69/1
f  1/69/1 18/70/18 17/66/17
f  56/63/56 54/60/54 2/59/2
f  2/59/2 17/66/17 56/63/56
f  40/43/40 50/53/50 51/56/51
f  51/56/51 41/44/41 40/43/40
f  57/71/57 58/72/58 59/73/59
f  59/73/59 60/74/60 57/71/57
f  61/75/61 62/76/62 63/77/63
f  63/77/63 64/78/64 61/75/61
f  65/79/65 66/80/66 67/81/67
f  67/81/67 68/82/68 65/79/65
f  69/83/69 27/84/27 26/85/26
f  26/85/26 70/86/70 69/83/69
f  71/87/71 72/88/72 73/89/73
f  73/89/73 74/90/74 71/87/71
f  75/91/75 32/92/32 76/93/76
f  76/93/76 77/94/77 75/91/75
f  78/95/78 79/96/79 80/97/80
f  80/97/80 81/98/81 78/95/78
f  10/99/10 82/100/82 83/101/83
f  83/101/83 11/102/11 10/99/10
f  84/103/84 85/104/85 86/105/86
f  86/105/86 87/106/87 84/103/84
f  88/107/88 89/108/89 90/109/90
f  90/109/90 22/110/22 88/107/88
f  55/111/55 54/112/54 91/113/91
f  91/113/91 92/114/92 55/111/55
f  81/98/81 80/97/80 33/34/33
f  33/34/33 28/33/28 81/98/81
f  56/115/56 34/37/34 37/40/37
f  37/40/37 93/116/93 56/115/56
f  42/45/42 55/111/55 92/114/92
f  92/114/92 43/46/43 42/45/42
f  62/117/62 53/118/53 52/119/52
f  52/119/52 63/120/63 62/117/62
f  61/121/61 89/122/89 83/123/83
f  83/123/83 77/124/77 61/121/61
f  94/125/94 84/126/84 87/127/87
f  87/127/87 95/128/95 94/125/94
f  35/38/35 17/129/17 20/130/20
f  20/130/20 36/39/36 35/38/35
f  54/112/54 13/13/13 16/16/16
f  16/16/16 91/113/91 54/112/54
f  65/131/65 73/132/73 72/133/72
f  72/133/72 60/134/60 65/131/65
f  66/135/66 48/136/48 40/137/40
f  40/137/40 67/138/67 66/135/66
f  18/18/18 1/1/1 4/4/4
f  4/4/4 19/19/19 18/18/18
f  14/14/14 56/115/56 93/116/93
f  93/116/93 15/15/15 14/14/14
f  8/8/8 7/7/7 96/139/96
f  96/139/96 97/140/97 8/8/8
f  8/141/8 98/142/98 99/143/99
f  99/143/99 5/144/5 8/141/8
f  100/145/100 70/146/70 10/10/10
f  10/10/10 9/9/9 100/145/100
f  101/147/101 88/148/88 22/22/22
f  22/22/22 21/21/21 101/147/101
f  5/144/5 99/143/99 94/149/94
f  94/149/94 102/150/102 5/144/5
f  102/151/102 94/152/94 95/153/95
f  95/153/95 103/154/103 102/151/102
f  28/28/28 27/27/27 104/155/104
f  104/155/104 81/156/81 28/28/28
f  33/157/33 41/158/41 30/30/30
f  30/30/30 29/29/29 33/157/33
f  97/159/97 24/160/24 98/142/98
f  98/142/98 8/141/8 97/159/97
f  105/161/105 21/162/21 24/160/24
f  24/160/24 97/159/97 105/161/105
f  47/50/47 46/49/46 106/163/106
f  106/163/106 103/164/103 47/50/47
f  99/165/99 74/166/74 84/167/84
f  84/167/84 94/168/94 99/165/99
f  60/134/60 72/133/72 107/169/107
f  107/169/107 57/170/57 60/134/60
f  22/110/22 90/109/90 107/171/107
f  107/171/107 23/172/23 22/110/22
f  87/106/87 86/105/86 104/173/104
f  104/173/104 108/174/108 87/106/87
f  11/102/11 83/101/83 89/108/89
f  89/108/89 88/107/88 11/102/11
f  64/78/64 63/77/63 58/72/58
f  58/72/58 57/71/57 64/78/64
f  60/74/60 59/73/59 66/80/66
f  66/80/66 65/79/65 60/74/60
f  74/90/74 73/89/73 85/175/85
f  85/175/85 84/176/84 74/90/74
f  70/86/70 26/85/26 82/100/82
f  82/100/82 10/99/10 70/86/70
f  77/94/77 76/93/76 62/76/62
f  62/76/62 61/75/61 77/94/77
f  68/177/68 67/178/67 79/96/79
f  79/96/79 78/95/78 68/177/68
f  23/172/23 107/171/107 72/88/72
f  72/88/72 71/87/71 23/172/23
f  108/174/108 104/173/104 27/84/27
f  27/84/27 69/83/69 108/174/108
f  25/36/25 29/35/29 32/92/32
f  32/92/32 75/91/75 25/36/25
f  109/179/109 110/180/110 96/181/96
f  96/181/96 111/182/111 109/179/109
f  78/183/78 86/184/86 85/185/85
f  85/185/85 68/186/68 78/183/78
f  112/187/112 113/188/113 45/48/45
f  45/48/45 44/47/44 112/187/112
f  102/189/102 114/190/114 6/6/6
f  6/6/6 5/5/5 102/189/102
f  115/191/115 45/192/45 113/193/113
f  113/193/113 116/194/116 115/191/115
f  117/195/117 7/196/7 6/197/6
f  6/197/6 118/198/118 117/195/117
f  95/128/95 87/127/87 108/199/108
f  108/199/108 119/200/119 95/128/95
f  75/201/75 82/202/82 26/26/26
f  26/26/26 25/25/25 75/201/75
f  120/203/120 121/204/121 122/205/122
f  122/205/122 123/206/123 120/203/120
f  124/207/124 114/208/114 106/209/106
f  106/209/106 125/210/125 124/207/124
f  126/211/126 127/212/127 110/180/110
f  110/180/110 109/179/109 126/211/126
f  128/213/128 127/214/127 122/215/122
f  122/215/122 129/216/129 128/213/128
f  103/154/103 95/153/95 119/217/119
f  119/217/119 47/218/47 103/154/103
f  47/218/47 119/217/119 130/219/130
f  130/219/130 44/220/44 47/218/47
f  76/221/76 51/222/51 53/118/53
f  53/118/53 62/117/62 76/221/76
f  129/216/129 122/215/122 121/223/121
f  121/223/121 131/224/131 129/216/129
f  59/225/59 49/226/49 48/136/48
f  48/136/48 66/135/66 59/225/59
f  128/227/128 101/228/101 21/162/21
f  21/162/21 105/161/105 128/227/128
f  112/229/112 100/230/100 9/231/9
f  9/231/9 131/232/131 112/229/112
f  97/140/97 96/139/96 110/233/110
f  110/233/110 105/234/105 97/140/97
f  130/235/130 69/236/69 70/146/70
f  70/146/70 100/145/100 130/235/130
f  131/232/131 9/231/9 12/237/12
f  12/237/12 129/238/129 131/232/131
f  129/238/129 12/237/12 101/228/101
f  101/228/101 128/227/128 129/238/129
f  44/220/44 130/219/130 100/230/100
f  100/230/100 112/229/112 44/220/44
f  92/239/92 91/240/91 123/241/123
f  123/241/123 126/242/126 92/239/92
f  43/243/43 92/239/92 126/242/126
f  126/242/126 109/244/109 43/243/43
f  3/245/3 43/243/43 109/244/109
f  109/244/109 111/246/111 3/245/3
f  4/247/4 3/245/3 111/246/111
f  111/246/111 117/248/117 4/247/4
f  19/249/19 4/247/4 117/248/117
f  117/248/117 118/250/118 19/249/19
f  20/251/20 19/249/19 118/250/118
f  118/250/118 124/252/124 20/251/20
f  36/253/36 20/254/20 124/255/124
f  124/255/124 125/256/125 36/253/36
f  37/257/37 36/253/36 125/256/125
f  125/256/125 132/258/132 37/257/37
f  93/259/93 37/257/37 132/258/132
f  132/258/132 115/260/115 93/259/93
f  15/261/15 93/259/93 115/260/115
f  115/260/115 116/262/116 15/261/15
f  16/263/16 15/261/15 116/262/116
f  116/262/116 120/264/120 16/263/16
f  91/240/91 16/263/16 120/264/120
f  120/264/120 123/241/123 91/240/91
f  125/210/125 106/209/106 46/265/46
f  46/265/46 132/266/132 125/210/125
f  123/206/123 122/205/122 127/212/127
f  127/212/127 126/211/126 123/206/123
f  64/267/64 90/268/90 89/122/89
f  89/122/89 61/121/61 64/267/64
f  68/269/68 85/270/85 73/132/73
f  73/132/73 65/131/65 68/269/68
f  118/198/118 6/197/6 114/271/114
f  114/271/114 124/272/124 118/198/118
f  116/194/116 113/193/113 121/204/121
f  121/204/121 120/203/120 116/194/116
f  24/24/24 23/23/23 71/273/71
f  71/273/71 98/274/98 24/24/24
f  63/120/63 52/119/52 50/275/50
f  50/275/50 58/276/58 63/120/63
f  111/182/111 96/181/96 7/196/7
f  7/196/7 117/195/117 111/182/111
f  132/266/132 46/265/46 45/192/45
f  45/192/45 115/191/115 132/266/132
f  79/277/79 39/278/39 38/279/38
f  38/279/38 80/280/80 79/277/79
f  32/32/32 31/31/31 51/222/51
f  51/222/51 76/221/76 32/32/32
f  67/281/67 40/282/40 39/278/39
f  39/278/39 79/277/79 67/281/67
f  119/200/119 108/199/108 69/236/69
f  69/236/69 130/235/130 119/200/119
f  105/234/105 110/233/110 127/214/127
f  127/214/127 128/213/128 105/234/105
f  58/276/58 50/275/50 49/226/49
f  49/226/49 59/225/59 58/276/58
f  131/224/131 121/223/121 113/188/113
f  113/188/113 112/187/112 131/224/131
f  57/170/57 107/169/107 90/268/90
f  90/268/90 64/267/64 57/170/57
f  77/124/77 83/123/83 82/202/82
f  82/202/82 75/201/75 77/124/77
f  98/274/98 71/273/71 74/166/74
f  74/166/74 99/165/99 98/274/98
f  103/164/103 106/163/106 114/283/114
f  114/283/114 102/284/102 103/164/103
f  12/12/12 11/11/11 88/148/88
f  88/148/88 101/147/101 12/12/12
f  80/280/80 38/279/38 41/158/41
f  41/158/41 33/157/33 80/280/80
f  81/156/81 104/155/104 86/184/86
f  86/184/86 78/183/78 81/156/81

