# File produced by Open Asset Import Library (http://www.assimp.sf.net)
# (assimp v3.1.193236683)

mtllib Coin.mtl

# 32 vertex positions
v  0.038268 -0.01 -0.092388
v  0 -0.01 -0.1
v  0 0.01 -0.1
v  0.038268 0.01 -0.092388
v  0.070711 -0.01 -0.070711
v  0.070711 0.01 -0.070711
v  0.092388 -0.01 -0.038268
v  0.092388 0.01 -0.038268
v  0.1 -0.01 0
v  0.1 0.01 0
v  0.092388 -0.01 0.038268
v  0.092388 0.01 0.038268
v  0.070711 -0.01 0.070711
v  0.070711 0.01 0.070711
v  0.038268 -0.01 0.092388
v  0.038268 0.01 0.092388
v  0 -0.01 0.1
v  0 0.01 0.1
v  -0.038268 -0.01 0.092388
v  -0.038268 0.01 0.092388
v  -0.070711 -0.01 0.070711
v  -0.070711 0.01 0.070711
v  -0.092388 -0.01 0.038268
v  -0.092388 0.01 0.038268
v  -0.1 -0.01 0
v  -0.1 0.01 0
v  -0.092388 -0.01 -0.038268
v  -0.092388 0.01 -0.038268
v  -0.070711 -0.01 -0.070711
v  -0.070711 0.01 -0.070711
v  -0.038268 -0.01 -0.092388
v  -0.038268 0.01 -0.092388

# 68 UV coordinates
vt 0.631262 0.907187 0
vt 0.721424 0.907187 0
vt 0.721424 0.953403 0
vt 0.631262 0.953403 0
vt 0.5411 0.907187 0
vt 0.5411 0.953403 0
vt 0.450937 0.907187 0
vt 0.450937 0.953403 0
vt 0.360775 0.907187 0
vt 0.360775 0.953403 0
vt 0.270613 0.907187 0
vt 0.270613 0.953403 0
vt 0.180451 0.907187 0
vt 0.180451 0.953403 0
vt 0.090289 0.907187 0
vt 0.090289 0.953403 0
vt 0.000127 0.907187 0
vt 0.000127 0.953403 0
vt 0.090289 0.999873 0
vt 0.000127 0.999873 0
vt 0.000127 0.953657 0
vt 0.090289 0.953657 0
vt 0.180452 0.999873 0
vt 0.180452 0.953657 0
vt 0.270614 0.999873 0
vt 0.270614 0.953657 0
vt 0.360776 0.999873 0
vt 0.360776 0.953657 0
vt 0.450938 0.999873 0
vt 0.450938 0.953657 0
vt 0.5411 0.999873 0
vt 0.5411 0.953657 0
vt 0.181684 0.000127 0
vt 0.271846 0.000127 0
vt 0.355145 0.034631 0
vt 0.098385 0.034631 0
vt 0.631262 0.999873 0
vt 0.631262 0.953657 0
vt 0.721424 0.999873 0
vt 0.721424 0.953657 0
vt 0.034631 0.551915 0
vt 0.034631 0.808675 0
vt 0.000127 0.725376 0
vt 0.000127 0.635214 0
vt 0.000127 0.271846 0
vt 0.000127 0.181684 0
vt 0.034631 0.098385 0
vt 0.034631 0.355145 0
vt 0.271846 0.453403 0
vt 0.181684 0.453403 0
vt 0.098385 0.418899 0
vt 0.355145 0.418899 0
vt 0.453403 0.181684 0
vt 0.453403 0.271846 0
vt 0.418899 0.355145 0
vt 0.418899 0.098385 0
vt 0.418899 0.808675 0
vt 0.418899 0.551915 0
vt 0.453403 0.635214 0
vt 0.453403 0.725376 0
vt 0.098385 0.872429 0
vt 0.355145 0.872429 0
vt 0.271846 0.906933 0
vt 0.181683 0.906933 0
vt 0.355145 0.488161 0
vt 0.098385 0.488161 0
vt 0.181684 0.453657 0
vt 0.271846 0.453657 0

# 32 vertex normals
vn 0.357646 -0.355739 -0.863446
vn 0 -0.971268 -0.237989
vn 0 0.95132 -0.308205
vn 0.357652 0.355697 -0.863461
vn 0.660852 -0.355737 -0.660852
vn 0.47948 0.734981 -0.47948
vn 0.357453 -0.92212 -0.14806
vn 0.284747 0.951319 -0.117944
vn 0.0617923 -0.998089 0
vn 0.0617921 0.998089 0
vn 0.863446 -0.355739 0.357646
vn 0.863461 0.355697 0.357652
vn 0.660852 -0.355737 0.660852
vn 0.47948 0.734981 0.47948
vn 0.0247188 -0.997912 0.0596774
vn 0.0236468 0.998089 0.0570892
vn 0 -0.951318 0.30821
vn 0 0.95132 0.308205
vn -0.357646 -0.355739 0.863446
vn -0.357652 0.355697 0.863461
vn -0.660852 -0.355737 0.660852
vn -0.47948 0.734981 0.47948
vn -0.357453 -0.92212 0.14806
vn -0.219874 0.971268 0.0910732
vn -0.0658297 -0.997831 0
vn -0.0617921 0.998089 0
vn -0.863446 -0.355739 -0.357646
vn -0.863461 0.355697 -0.357652
vn -0.660852 -0.355737 -0.660852
vn -0.47948 0.734981 -0.47948
vn -0.0247188 -0.997912 -0.0596774
vn -0.0251918 0.997831 -0.0608192

# Mesh 'Cylinder_Cylinder' with 60 faces
g Cylinder_Cylinder
usemtl DefaultMaterial
f  1/1/1 2/2/2 3/3/3
f  3/3/3 4/4/4 1/1/1
f  5/5/5 1/1/1 4/4/4
f  4/4/4 6/6/6 5/5/5
f  7/7/7 5/5/5 6/6/6
f  6/6/6 8/8/8 7/7/7
f  9/9/9 7/7/7 8/8/8
f  8/8/8 10/10/10 9/9/9
f  11/11/11 9/9/9 10/10/10
f  10/10/10 12/12/12 11/11/11
f  13/13/13 11/11/11 12/12/12
f  12/12/12 14/14/14 13/13/13
f  15/15/15 13/13/13 14/14/14
f  14/14/14 16/16/16 15/15/15
f  17/17/17 15/15/15 16/16/16
f  16/16/16 18/18/18 17/17/17
f  19/19/19 17/20/17 18/21/18
f  18/21/18 20/22/20 19/19/19
f  21/23/21 19/19/19 20/22/20
f  20/22/20 22/24/22 21/23/21
f  23/25/23 21/23/21 22/24/22
f  22/24/22 24/26/24 23/25/23
f  25/27/25 23/25/23 24/26/24
f  24/26/24 26/28/26 25/27/25
f  27/29/27 25/27/25 26/28/26
f  26/28/26 28/30/28 27/29/27
f  29/31/29 27/29/27 28/30/28
f  28/30/28 30/32/30 29/31/29
f  22/33/22 20/34/20 18/35/18
f  18/35/18 24/36/24 22/33/22
f  31/37/31 29/31/29 30/32/30
f  30/32/30 32/38/32 31/37/31
f  2/39/2 31/37/31 32/38/32
f  32/38/32 3/40/3 2/39/2
f  31/41/31 25/42/25 27/43/27
f  27/43/27 29/44/29 31/41/31
f  30/45/30 28/46/28 26/47/26
f  26/47/26 32/48/32 30/45/30
f  6/49/6 4/50/4 3/51/3
f  3/51/3 8/52/8 6/49/6
f  14/53/14 12/54/12 10/55/10
f  10/55/10 16/56/16 14/53/14
f  24/36/24 18/35/18 16/56/16
f  16/56/16 26/47/26 24/36/24
f  32/48/32 10/55/10 8/52/8
f  8/52/8 3/51/3 32/48/32
f  32/48/32 26/47/26 16/56/16
f  16/56/16 10/55/10 32/48/32
f  15/57/15 9/58/9 11/59/11
f  11/59/11 13/60/13 15/57/15
f  23/61/23 17/62/17 19/63/19
f  19/63/19 21/64/21 23/61/23
f  7/65/7 2/66/2 1/67/1
f  1/67/1 5/68/5 7/65/7
f  2/66/2 7/65/7 9/58/9
f  9/58/9 31/41/31 2/66/2
f  25/42/25 15/57/15 17/62/17
f  17/62/17 23/61/23 25/42/25
f  15/57/15 25/42/25 31/41/31
f  31/41/31 9/58/9 15/57/15

