# File produced by Open Asset Import Library (http://www.assimp.sf.net)
# (assimp v3.1.193236683)

mtllib Gemstone.mtl

# 70 vertex positions
v  0 0.01 0.011963
v  0.007975 0.01 0.007975
v  0.012588 0.034375 0.012588
v  0 0.037483 0.020906
v  0.002719 -0.0125 0.002719
v  0 -0.006667 0.005961
v  0.011963 0.01 0
v  0.005961 -0.006667 0
v  0.020905 0.037483 0
v  0 0.01 -0.011963
v  -0.007975 0.01 -0.007975
v  -0.012587 0.034375 -0.012588
v  0 0.037483 -0.020906
v  -0.002719 -0.0125 -0.002719
v  0 -0.006667 -0.005961
v  -0.011963 0.01 0
v  -0.005961 -0.006667 0
v  -0.020906 0.037483 0
v  -0.007975 0.01 0.007975
v  -0.012587 0.034375 0.012588
v  -0.002719 -0.0125 0.002719
v  0.007975 0.01 -0.007975
v  0.012588 0.034375 -0.012588
v  0.002719 -0.0125 -0.002719
v  0 -0.02 0
v  0.013375 0.0475 -0.013375
v  0.017861 0.04864 -0.006226
v  0.006226 0.04864 -0.017861
v  0.011591 0.05353 -0.011591
v  0.007714 0.052714 -0.014094
v  0.014094 0.052714 -0.007714
v  0.013375 0.0475 0.013375
v  0.006226 0.04864 0.017861
v  0.017861 0.04864 0.006226
v  0.011591 0.05353 0.011591
v  0.014094 0.052714 0.007714
v  0.007714 0.052714 0.014094
v  -0.013375 0.0475 -0.013375
v  -0.006226 0.04864 -0.017861
v  -0.017861 0.04864 -0.006226
v  -0.011591 0.05353 -0.011591
v  -0.014094 0.052714 -0.007714
v  -0.007714 0.052714 -0.014094
v  -0.013375 0.0475 0.013375
v  -0.017861 0.04864 0.006226
v  -0.006226 0.04864 0.017861
v  -0.011591 0.05353 0.011591
v  -0.007714 0.052714 0.014094
v  -0.014094 0.052714 0.007714
v  0.016098 0.052061 0
v  0.012556 0.056061 0
v  0 0.052061 0.016098
v  0 0.056061 0.012556
v  -0.012556 0.056061 0
v  -0.016098 0.052061 0
v  0 0.052061 -0.016098
v  0 0.056061 -0.012556
v  -0.003006 0.057061 0.008259
v  -0.008259 0.057061 0.00301
v  0.003006 0.057061 0.008259
v  0.008259 0.057061 0.003006
v  0.008259 0.057061 -0.003006
v  0.003006 0.057061 -0.008259
v  -0.003006 0.057061 -0.008259
v  -0.008259 0.057061 -0.003006
v  0.002486 0.058916 0.002487
v  -0.002485 0.058916 0.002488
v  -0.002486 0.058916 -0.002485
v  0.002486 0.058916 -0.002485
v  0 0.058916 1e-06

# 104 UV coordinates
vt 0.403826 0.353704 0
vt 0.466595 0.344321 0
vt 0.507421 0.51861 0
vt 0.403827 0.561682 0
vt 0.426064 0.176467 0
vt 0.403826 0.224782 0
vt 0.527075 0.324316 0
vt 0.467904 0.209323 0
vt 0.619342 0.511431 0
vt 0.182051 0.241102 0
vt 0.228146 0.287335 0
vt 0.114074 0.427455 0
vt 0.016649 0.372753 0
vt 0.342263 0.155983 0
vt 0.289816 0.165907 0
vt 0.280578 0.324316 0
vt 0.339748 0.209323 0
vt 0.188311 0.511432 0
vt 0.341058 0.344321 0
vt 0.300232 0.51861 0
vt 0.381588 0.176466 0
vt 0.579506 0.287335 0
vt 0.693578 0.427455 0
vt 0.465389 0.155983 0
vt 0.625601 0.241102 0
vt 0.517836 0.165907 0
vt 0.791004 0.372753 0
vt 0.487254 0.122159 0
vt 0.426698 0.106992 0
vt 0.483913 0.082022 0
vt 0.534847 0.097991 0
vt 0.456758 0.052279 0
vt 0.41709 0.045309 0
vt 0.445479 0.000107 0
vt 0.506842 0.033821 0
vt 0.752485 0.500425 0
vt 0.710273 0.546152 0
vt 0.806013 0.468768 0
vt 0.782324 0.537343 0
vt 0.807546 0.512379 0
vt 0.752624 0.556785 0
vt 0.528755 0.610122 0
vt 0.470639 0.632956 0
vt 0.590973 0.604896 0
vt 0.539574 0.656519 0
vt 0.573287 0.64499 0
vt 0.504238 0.661091 0
vt 0.055167 0.500426 0
vt 0.00164 0.468768 0
vt 0.09738 0.546152 0
vt 0.025328 0.537344 0
vt 0.05503 0.556786 0
vt 0.000107 0.51238 0
vt 0.278898 0.610122 0
vt 0.21668 0.604897 0
vt 0.337015 0.632956 0
vt 0.26808 0.65652 0
vt 0.303416 0.661091 0
vt 0.234367 0.64499 0
vt 0.257067 0.918262 0
vt 0.243583 0.971348 0
vt 0.2052 0.948298 0
vt 0.230803 0.891998 0
vt 0.310156 0.756419 0
vt 0.25707 0.742934 0
vt 0.243587 0.689848 0
vt 0.338702 0.661306 0
vt 0.287104 0.866396 0
vt 0.310153 0.90478 0
vt 0.287106 0.794801 0
vt 0.230805 0.769199 0
vt 0.338695 0.999893 0
vt 0.205203 0.712896 0
vt 0.095221 0.689847 0
vt 0.133605 0.712894 0
vt 0.108004 0.769197 0
vt 0.081739 0.742933 0
vt 0.028655 0.904777 0
vt 0.08174 0.918261 0
vt 0.095223 0.971346 0
vt 0.000111 0.999888 0
vt 0.051703 0.7948 0
vt 0.028653 0.756418 0
vt 0.051704 0.866395 0
vt 0.108004 0.891997 0
vt 0.000107 0.661305 0
vt 0.133606 0.948297 0
vt 0.195649 0.775521 0
vt 0.169405 0.707687 0
vt 0.14318 0.7755 0
vt 0.292313 0.830599 0
vt 0.224482 0.804354 0
vt 0.224481 0.856843 0
vt 0.169403 0.953506 0
vt 0.195648 0.885675 0
vt 0.143159 0.885674 0
vt 0.046496 0.830598 0
vt 0.114327 0.856841 0
vt 0.114327 0.804353 0
vt 0.193761 0.830594 0
vt 0.169416 0.806234 0
vt 0.145051 0.830593 0
vt 0.169406 0.854948 0
vt 0.169409 0.830592 0

# 70 vertex normals
vn -2.81594e-08 -0.312882 0.949792
vn 0.677704 -0.285366 0.677704
vn 0.690556 -0.2152 0.690523
vn 0 -0.183003 0.983112
vn 0.632506 -0.44707 0.632507
vn -1.75388e-07 -0.380022 0.924977
vn 0.949801 -0.312854 2.81587e-08
vn 0.924978 -0.380022 1.75388e-07
vn 0.983113 -0.183002 0
vn 2.81594e-08 -0.312882 -0.949792
vn -0.677707 -0.285353 -0.677707
vn -0.690539 -0.215201 -0.690539
vn 0 -0.183003 -0.983112
vn -0.632506 -0.44707 -0.632507
vn 1.75388e-07 -0.380022 -0.924978
vn -0.949792 -0.312882 7.03961e-09
vn -0.924978 -0.380022 -1.31541e-07
vn -0.983111 -0.183013 1.98259e-08
vn -0.677707 -0.285353 0.677707
vn -0.690539 -0.215201 0.690539
vn -0.632507 -0.44707 0.632506
vn 0.677704 -0.285366 -0.677704
vn 0.690556 -0.2152 -0.690523
vn 0.632507 -0.44707 -0.632506
vn 0 -1 0
vn 0.705199 0.0734099 -0.705199
vn 0.934958 0.166989 -0.313
vn 0.313032 0.167036 -0.934938
vn 0.404979 0.819746 -0.404979
vn 0.21494 0.683903 -0.697193
vn 0.697193 0.683903 -0.21494
vn 0.705199 0.0734099 0.705199
vn 0.313032 0.167036 0.934938
vn 0.934958 0.166989 0.313
vn 0.395053 0.835942 0.380965
vn 0.619049 0.744028 0.251397
vn 0.21494 0.683903 0.697193
vn -0.705201 0.0733733 -0.705201
vn -0.313042 0.167033 -0.934936
vn -0.935216 0.158683 -0.316528
vn -0.404979 0.819746 -0.404979
vn -0.70555 0.67783 -0.20675
vn -0.21494 0.683903 -0.697193
vn -0.705201 0.0733733 0.705201
vn -0.935216 0.158683 0.316528
vn -0.313042 0.167033 0.934936
vn -0.41752 0.806604 0.418411
vn -0.21494 0.683903 0.697193
vn -0.70555 0.67783 0.20675
vn 0.806019 0.591889 -2.8011e-09
vn 0.514388 0.857181 0.0253884
vn -2.8011e-09 0.591889 0.806019
vn -5.04709e-09 0.838479 0.544935
vn -0.526981 0.849877 -3.62058e-09
vn -0.813511 0.581549 0
vn 2.8011e-09 0.591889 -0.806019
vn 1.00937e-08 0.838495 -0.544909
vn -0.18434 0.927203 0.326059
vn -0.32604 0.92719 0.184438
vn 0.19497 0.927006 0.320385
vn 0.331377 0.918253 0.216797
vn 0.320385 0.927006 -0.19497
vn 0.194963 0.927011 -0.320374
vn -0.194963 0.927011 -0.320374
vn -0.320385 0.927006 -0.19497
vn 0.160391 0.973935 0.160391
vn -0.183806 0.965293 0.185538
vn -0.160364 0.973944 -0.160364
vn 0.160364 0.973944 -0.160364
vn 6.94038e-09 1 3.47019e-09

# Mesh 'Gemstone_low.001_Cube.004_Gemstone_low.001_Cube.004' with 136 faces
g Gemstone_low.001_Cube.004_Gemstone_low.001_Cube.004
usemtl DefaultMaterial
f  1/1/1 2/2/2 3/3/3
f  3/3/3 4/4/4 1/1/1
f  5/5/5 2/2/2 1/1/1
f  1/1/1 6/6/6 5/5/5
f  7/7/7 2/2/2 5/5/5
f  5/5/5 8/8/8 7/7/7
f  3/3/3 2/2/2 7/7/7
f  7/7/7 9/9/9 3/3/3
f  10/10/10 11/11/11 12/12/12
f  12/12/12 13/13/13 10/10/10
f  14/14/14 11/11/11 10/10/10
f  10/10/10 15/15/15 14/14/14
f  16/16/16 11/11/11 14/14/14
f  14/14/14 17/17/17 16/16/16
f  12/12/12 11/11/11 16/16/16
f  16/16/16 18/18/18 12/12/12
f  16/16/16 19/19/19 20/20/20
f  20/20/20 18/18/18 16/16/16
f  21/21/21 19/19/19 16/16/16
f  16/16/16 17/17/17 21/21/21
f  1/1/1 19/19/19 21/21/21
f  21/21/21 6/6/6 1/1/1
f  20/20/20 19/19/19 1/1/1
f  1/1/1 4/4/4 20/20/20
f  7/7/7 22/22/22 23/23/23
f  23/23/23 9/9/9 7/7/7
f  24/24/24 22/22/22 7/7/7
f  7/7/7 8/8/8 24/24/24
f  10/25/10 22/22/22 24/24/24
f  24/24/24 15/26/15 10/25/10
f  23/23/23 22/22/22 10/25/10
f  10/25/10 13/27/13 23/23/23
f  14/28/14 25/29/25 21/30/21
f  21/30/21 17/31/17 14/28/14
f  24/24/24 25/29/25 14/28/14
f  14/28/14 15/26/15 24/24/24
f  5/32/5 25/29/25 24/33/24
f  24/33/24 8/34/8 5/32/5
f  21/30/21 25/29/25 5/32/5
f  5/32/5 6/35/6 21/30/21
f  23/23/23 26/36/26 27/37/27
f  27/37/27 9/9/9 23/23/23
f  28/38/28 26/36/26 23/23/23
f  23/23/23 13/27/13 28/38/28
f  29/39/29 26/36/26 28/38/28
f  28/38/28 30/40/30 29/39/29
f  27/37/27 26/36/26 29/39/29
f  29/39/29 31/41/31 27/37/27
f  3/3/3 32/42/32 33/43/33
f  33/43/33 4/4/4 3/3/3
f  34/44/34 32/42/32 3/3/3
f  3/3/3 9/9/9 34/44/34
f  35/45/35 32/42/32 34/44/34
f  34/44/34 36/46/36 35/45/35
f  33/43/33 32/42/32 35/45/35
f  35/45/35 37/47/37 33/43/33
f  12/12/12 38/48/38 39/49/39
f  39/49/39 13/13/13 12/12/12
f  40/50/40 38/48/38 12/12/12
f  12/12/12 18/18/18 40/50/40
f  41/51/41 38/48/38 40/50/40
f  40/50/40 42/52/42 41/51/41
f  39/49/39 38/48/38 41/51/41
f  41/51/41 43/53/43 39/49/39
f  20/20/20 44/54/44 45/55/45
f  45/55/45 18/18/18 20/20/20
f  46/56/46 44/54/44 20/20/20
f  20/20/20 4/4/4 46/56/46
f  47/57/47 44/54/44 46/56/46
f  46/56/46 48/58/48 47/57/47
f  45/55/45 44/54/44 47/57/47
f  47/57/47 49/59/49 45/55/45
f  50/60/50 27/61/27 31/62/31
f  31/62/31 51/63/51 50/60/50
f  33/64/33 52/65/52 46/66/46
f  46/66/46 4/67/4 33/64/33
f  36/68/36 34/69/34 50/60/50
f  50/60/50 51/63/51 36/68/36
f  52/65/52 33/64/33 37/70/37
f  37/70/37 53/71/53 52/65/52
f  27/61/27 50/60/50 34/69/34
f  34/69/34 9/72/9 27/61/27
f  48/73/48 46/66/46 52/65/52
f  52/65/52 53/71/53 48/73/48
f  45/74/45 49/75/49 54/76/54
f  54/76/54 55/77/55 45/74/45
f  39/78/39 56/79/56 28/80/28
f  28/80/28 13/81/13 39/78/39
f  54/76/54 42/82/42 40/83/40
f  40/83/40 55/77/55 54/76/54
f  56/79/56 39/78/39 43/84/43
f  43/84/43 57/85/57 56/79/56
f  45/74/45 55/77/55 40/83/40
f  40/83/40 18/86/18 45/74/45
f  30/87/30 28/80/28 56/79/56
f  56/79/56 57/85/57 30/87/30
f  53/71/53 58/88/58 47/89/47
f  47/89/47 48/73/48 53/71/53
f  47/89/47 59/90/59 54/76/54
f  54/76/54 49/75/49 47/89/47
f  35/91/35 60/92/60 53/71/53
f  53/71/53 37/70/37 35/91/35
f  61/93/61 35/91/35 36/68/36
f  36/68/36 51/63/51 61/93/61
f  29/94/29 62/95/62 51/63/51
f  51/63/51 31/62/31 29/94/29
f  57/85/57 63/96/63 29/94/29
f  29/94/29 30/87/30 57/85/57
f  41/97/41 64/98/64 57/85/57
f  57/85/57 43/84/43 41/97/41
f  54/76/54 65/99/65 41/97/41
f  41/97/41 42/82/42 54/76/54
f  61/93/61 66/100/66 60/92/60
f  60/92/60 35/91/35 61/93/61
f  47/89/47 58/88/58 67/101/67
f  67/101/67 59/90/59 47/89/47
f  65/99/65 68/102/68 64/98/64
f  64/98/64 41/97/41 65/99/65
f  63/96/63 69/103/69 62/95/62
f  62/95/62 29/94/29 63/96/63
f  61/93/61 51/63/51 70/104/70
f  70/104/70 66/100/66 61/93/61
f  63/96/63 57/85/57 70/104/70
f  70/104/70 69/103/69 63/96/63
f  65/99/65 54/76/54 70/104/70
f  70/104/70 68/102/68 65/99/65
f  58/88/58 53/71/53 70/104/70
f  70/104/70 67/101/67 58/88/58
f  70/104/70 53/71/53 60/92/60
f  60/92/60 66/100/66 70/104/70
f  70/104/70 51/63/51 62/95/62
f  62/95/62 69/103/69 70/104/70
f  70/104/70 57/85/57 64/98/64
f  64/98/64 68/102/68 70/104/70
f  70/104/70 54/76/54 59/90/59
f  59/90/59 67/101/67 70/104/70

