# File produced by Open Asset Import Library (http://www.assimp.sf.net)
# (assimp v3.1.193236683)

mtllib Wall_Holddoor.mtl

# 24 vertex positions
v  0 0.9 -0.05
v  0 0.9 0.05
v  0 1 0.05
v  0 1 -0.05
v  1 0.9 -0.05
v  0.8 0.9 -0.05
v  0.8 1 -0.05
v  1 1 -0.05
v  1 0.9 0.05
v  1 1 0.05
v  0.2 0.9 0.05
v  0.2 1 0.05
v  0.8 0 0.05
v  0.8 0 -0.05
v  1 0 -0.05
v  1 0 0.05
v  0.2 1 -0.05
v  0.2 0.9 -0.05
v  0.8 0.9 0.05
v  0.8 1 0.05
v  0 0 0.05
v  0.2 0 0.05
v  0 0 -0.05
v  0.2 0 -0.05

# 54 UV coordinates
vt 0.476214 0.904366 0
vt 0.523786 0.904366 0
vt 0.523786 0.951938 0
vt 0.476214 0.951938 0
vt 0.475888 0.095308 0
vt 0.380743 0.095308 0
vt 0.380743 0.047735 0
vt 0.475888 0.047735 0
vt 0.524111 0.904366 0
vt 0.571684 0.904366 0
vt 0.571684 0.951938 0
vt 0.524111 0.951938 0
vt 0.476215 0.428316 0
vt 0.57136 0.428316 0
vt 0.57136 0.475888 0
vt 0.476215 0.475888 0
vt 0.380744 0.571033 0
vt 0.380743 0.523461 0
vt 0.475889 0.523461 0
vt 0.475889 0.571033 0
vt 0.095307 0.000163 0
vt 0.095308 0.047736 0
vt 0.000163 0.047736 0
vt 0.000162 0.000164 0
vt 0.095308 0.095308 0
vt 0.856795 0.428315 0
vt 0.856795 0.475887 0
vt 0.999837 0.000162 0
vt 0.999838 0.428315 0
vt 0.952265 0.428315 0
vt 0.952265 0.000162 0
vt 0.476214 0.000163 0
vt 0.571359 0.000162 0
vt 0.524111 0.476213 0
vt 0.571684 0.476213 0
vt 0.476214 0.476213 0
vt 0.523786 0.476213 0
vt 0.856794 0.000163 0
vt 0.951939 0.000163 0
vt 0.95194 0.428315 0
vt 0.95194 0.475887 0
vt 0.475888 0.000162 0
vt 0.380743 0.000163 0
vt 0.619581 0.904366 0
vt 0.572009 0.904366 0
vt 0.572009 0.476213 0
vt 0.619581 0.476213 0
vt 0.095309 0.52346 0
vt 0.000164 0.523461 0
vt 0.000163 0.095308 0
vt 0.000164 0.571033 0
vt 0.095309 0.571033 0
vt 0.999838 0.71375 0
vt 0.952265 0.71375 0

# 18 vertex normals
vn -0.447214 0 -0.894427
vn -0.447214 0 0.894427
vn -0.333333 0.666667 0.666667
vn -0.333333 0.666667 -0.666667
vn 0.447214 0 -0.894427
vn -0.319599 -0.213066 -0.923287
vn 0 0.707107 -0.707107
vn 0.333333 0.666667 -0.666667
vn 0.447214 0 0.894427
vn 0.333333 0.666667 0.666667
vn 0.319599 -0.213066 0.923287
vn 0 0.707107 0.707107
vn -0.445021 -0.0988936 0.890043
vn -0.445021 -0.0988936 -0.890043
vn 0.445021 -0.0988936 -0.890043
vn 0.445021 -0.0988936 0.890043
vn 0.319599 -0.213066 -0.923287
vn -0.319599 -0.213066 0.923287

# Mesh 'low_Cube.025_low_Cube.025' with 44 faces
g low_Cube.025_low_Cube.025
usemtl DefaultMaterial
f  1/1/1 2/2/2 3/3/3
f  3/3/3 4/4/4 1/1/1
f  5/5/5 6/6/6 7/7/7
f  7/7/7 8/8/8 5/5/5
f  9/9/9 5/10/5 8/11/8
f  8/11/8 10/12/10 9/9/9
f  2/13/2 11/14/11 12/15/12
f  12/15/12 3/16/3 2/13/2
f  13/17/13 14/18/14 15/19/15
f  15/19/15 16/20/16 13/17/13
f  12/21/12 17/22/7 4/23/4
f  4/23/4 3/24/3 12/21/12
f  18/25/17 17/22/7 7/7/7
f  7/7/7 6/6/6 18/25/17
f  19/26/18 20/27/12 12/15/12
f  12/15/12 11/14/11 19/26/18
f  13/28/13 19/29/18 6/30/6
f  6/30/6 14/31/14 13/28/13
f  21/32/13 22/33/16 11/14/11
f  11/14/11 2/13/2 21/32/13
f  16/34/16 15/35/15 5/10/5
f  5/10/5 9/9/9 16/34/16
f  15/19/15 14/18/14 6/6/6
f  6/6/6 5/5/5 15/19/15
f  23/36/14 21/37/13 2/2/2
f  2/2/2 1/1/1 23/36/14
f  13/38/13 16/39/16 9/40/9
f  9/40/9 19/26/18 13/38/13
f  19/26/18 9/40/9 10/41/10
f  10/41/10 20/27/12 19/26/18
f  10/42/10 8/8/8 7/7/7
f  7/7/7 20/43/12 10/42/10
f  18/44/17 11/45/11 22/46/16
f  22/46/16 24/47/15 18/44/17
f  24/48/15 23/49/14 1/50/1
f  1/50/1 18/25/17 24/48/15
f  18/25/17 1/50/1 4/23/4
f  4/23/4 17/22/7 18/25/17
f  21/51/13 23/49/14 24/48/15
f  24/48/15 22/52/16 21/51/13
f  6/30/6 19/29/18 11/53/11
f  11/53/11 18/54/17 6/30/6
f  20/43/12 7/7/7 17/22/7
f  17/22/7 12/21/12 20/43/12

